<mxfile host="app.diagrams.net" modified="2022-08-27T14:21:36.299Z" agent="5.0 (Windows)" etag="FZabLDht6HtackrQ_0TW" version="20.2.7" type="github">
  <diagram id="6mKI1g1vyai5QZtNVfHK" name="第 1 页">
    <mxGraphModel dx="1038" dy="536" grid="1" gridSize="10" guides="1" tooltips="1" connect="1" arrows="1" fold="1" page="1" pageScale="1" pageWidth="827" pageHeight="1169" math="0" shadow="0">
      <root>
        <mxCell id="0" />
        <mxCell id="1" parent="0" />
        <mxCell id="bFVgzqixFI1v6Z3ZOKr1-95" style="edgeStyle=orthogonalEdgeStyle;rounded=0;orthogonalLoop=1;jettySize=auto;html=1;entryX=0;entryY=0.5;entryDx=0;entryDy=0;" edge="1" parent="1" source="bFVgzqixFI1v6Z3ZOKr1-93" target="bFVgzqixFI1v6Z3ZOKr1-94">
          <mxGeometry relative="1" as="geometry" />
        </mxCell>
        <mxCell id="bFVgzqixFI1v6Z3ZOKr1-93" value="" style="ellipse;whiteSpace=wrap;html=1;" vertex="1" parent="1">
          <mxGeometry x="120" y="220" width="120" height="80" as="geometry" />
        </mxCell>
        <mxCell id="bFVgzqixFI1v6Z3ZOKr1-94" value="" style="rounded=0;whiteSpace=wrap;html=1;" vertex="1" parent="1">
          <mxGeometry x="420" y="230" width="120" height="60" as="geometry" />
        </mxCell>
      </root>
    </mxGraphModel>
  </diagram>
</mxfile>
